<mxfile host="app.diagrams.net" modified="2021-08-31T09:08:16.493Z" agent="5.0 (Windows)" etag="xaMcnRkUonfuViIAL5H9" version="15.0.3" type="github">
  <diagram id="lHmtqaqjQOU1sFie7Hmg" name="Page-1">
    <mxGraphModel dx="1135" dy="457" grid="1" gridSize="10" guides="1" tooltips="1" connect="1" arrows="1" fold="1" page="1" pageScale="1" pageWidth="850" pageHeight="1100" math="0" shadow="0">
      <root>
        <mxCell id="0" />
        <mxCell id="1" parent="0" />
        <mxCell id="hsaixpKsRT6CGWqEELvk-3" style="edgeStyle=orthogonalEdgeStyle;rounded=0;orthogonalLoop=1;jettySize=auto;html=1;" edge="1" parent="1" source="hsaixpKsRT6CGWqEELvk-1" target="hsaixpKsRT6CGWqEELvk-2">
          <mxGeometry relative="1" as="geometry" />
        </mxCell>
        <mxCell id="hsaixpKsRT6CGWqEELvk-1" value="Fusion " style="rounded=1;whiteSpace=wrap;html=1;" vertex="1" parent="1">
          <mxGeometry x="110" y="80" width="120" height="190" as="geometry" />
        </mxCell>
        <mxCell id="hsaixpKsRT6CGWqEELvk-11" style="edgeStyle=orthogonalEdgeStyle;rounded=0;orthogonalLoop=1;jettySize=auto;html=1;entryX=1.042;entryY=0.916;entryDx=0;entryDy=0;entryPerimeter=0;" edge="1" parent="1" source="hsaixpKsRT6CGWqEELvk-2" target="hsaixpKsRT6CGWqEELvk-1">
          <mxGeometry relative="1" as="geometry">
            <mxPoint x="550" y="300" as="targetPoint" />
            <Array as="points">
              <mxPoint x="550" y="200" />
              <mxPoint x="550" y="254" />
            </Array>
          </mxGeometry>
        </mxCell>
        <mxCell id="hsaixpKsRT6CGWqEELvk-2" value="URA" style="rounded=1;whiteSpace=wrap;html=1;" vertex="1" parent="1">
          <mxGeometry x="610" y="50" width="120" height="190" as="geometry" />
        </mxCell>
        <mxCell id="hsaixpKsRT6CGWqEELvk-4" value="Text" style="text;html=1;strokeColor=none;fillColor=none;align=center;verticalAlign=middle;whiteSpace=wrap;rounded=0;" vertex="1" parent="1">
          <mxGeometry x="400" y="210" width="40" height="20" as="geometry" />
        </mxCell>
        <mxCell id="hsaixpKsRT6CGWqEELvk-5" value="Text" style="text;html=1;strokeColor=none;fillColor=none;align=center;verticalAlign=middle;whiteSpace=wrap;rounded=0;" vertex="1" parent="1">
          <mxGeometry x="400" y="210" width="40" height="20" as="geometry" />
        </mxCell>
        <mxCell id="hsaixpKsRT6CGWqEELvk-6" value="&lt;div&gt;Invoice = Complete &lt;br&gt;&lt;/div&gt;&lt;div&gt;&lt;br&gt;&lt;/div&gt;&lt;div&gt;Transactionnumber =123&lt;br&gt;&lt;/div&gt;" style="text;html=1;strokeColor=none;fillColor=none;align=center;verticalAlign=middle;whiteSpace=wrap;rounded=0;" vertex="1" parent="1">
          <mxGeometry x="360" y="10" width="140" height="140" as="geometry" />
        </mxCell>
        <mxCell id="hsaixpKsRT6CGWqEELvk-7" style="edgeStyle=orthogonalEdgeStyle;rounded=0;orthogonalLoop=1;jettySize=auto;html=1;" edge="1" parent="1" source="hsaixpKsRT6CGWqEELvk-8" target="hsaixpKsRT6CGWqEELvk-9">
          <mxGeometry relative="1" as="geometry" />
        </mxCell>
        <mxCell id="hsaixpKsRT6CGWqEELvk-8" value="Fusion " style="rounded=1;whiteSpace=wrap;html=1;" vertex="1" parent="1">
          <mxGeometry x="130" y="450" width="120" height="190" as="geometry" />
        </mxCell>
        <mxCell id="hsaixpKsRT6CGWqEELvk-9" value="URA" style="rounded=1;whiteSpace=wrap;html=1;" vertex="1" parent="1">
          <mxGeometry x="630" y="420" width="120" height="190" as="geometry" />
        </mxCell>
        <mxCell id="hsaixpKsRT6CGWqEELvk-10" value="&lt;div&gt;Debit = Complete &lt;br&gt;&lt;/div&gt;&lt;div&gt;&lt;br&gt;&lt;/div&gt;&lt;div&gt;Transactionnumber =XXXX&lt;br&gt;&lt;/div&gt;&lt;div&gt;&lt;br&gt;&lt;/div&gt;&lt;div&gt;&lt;br&gt;&lt;/div&gt;OriginalTransactionnumber= 123" style="text;html=1;strokeColor=none;fillColor=none;align=center;verticalAlign=middle;whiteSpace=wrap;rounded=0;" vertex="1" parent="1">
          <mxGeometry x="270" y="360" width="180" height="140" as="geometry" />
        </mxCell>
        <mxCell id="hsaixpKsRT6CGWqEELvk-12" value="invoiceNo&quot;: &quot;32101953113&lt;br&gt;&lt;span style=&quot;white-space: pre&quot;&gt;	&lt;/span&gt;&lt;span style=&quot;white-space: pre&quot;&gt;	&lt;/span&gt;&quot;invoiceId&quot;: &quot;2376294414&quot;,&amp;nbsp;&amp;nbsp;&amp;nbsp;&amp;nbsp;&amp;nbsp;&amp;nbsp;&amp;nbsp;&amp;nbsp;&amp;nbsp;&amp;nbsp;&amp;nbsp;&amp;nbsp;&amp;nbsp;&amp;nbsp;&amp;nbsp;&amp;nbsp; &lt;br&gt;AntifakeCode&lt;br&gt;QRCODE" style="text;html=1;strokeColor=none;fillColor=none;align=center;verticalAlign=middle;whiteSpace=wrap;rounded=0;" vertex="1" parent="1">
          <mxGeometry x="530" y="250" width="250" height="120" as="geometry" />
        </mxCell>
        <mxCell id="hsaixpKsRT6CGWqEELvk-17" value="&#xa;invoiceNo&quot;: &quot;32101953113&lt;br&gt;&lt;span style=&quot;&quot;&gt;	&lt;/span&gt;&lt;span style=&quot;&quot;&gt;	&lt;/span&gt;&quot;invoiceId&quot;: &quot;2376294414&quot;,&amp;nbsp;&amp;nbsp;&amp;nbsp;&#xa;&#xa;" style="text;html=1;strokeColor=none;fillColor=none;align=center;verticalAlign=middle;whiteSpace=wrap;rounded=0;" vertex="1" parent="1">
          <mxGeometry x="460" y="410" width="150" height="110" as="geometry" />
        </mxCell>
        <mxCell id="hsaixpKsRT6CGWqEELvk-18" value="invoiceNo&quot;: &quot;9897882345&quot;&lt;br&gt;&lt;span style=&quot;white-space: pre&quot;&gt;	&lt;/span&gt;&lt;span style=&quot;white-space: pre&quot;&gt;	&lt;/span&gt;&quot;invoiceId&quot;: &quot;232324e678&quot;,&amp;nbsp;&amp;nbsp;&amp;nbsp;&amp;nbsp;&amp;nbsp;&amp;nbsp;&amp;nbsp;&amp;nbsp;&amp;nbsp;&amp;nbsp;&amp;nbsp;&amp;nbsp;&amp;nbsp;&amp;nbsp;&amp;nbsp;&amp;nbsp; &lt;br&gt;AntifakeCode&lt;br&gt;QRCODE" style="text;html=1;strokeColor=none;fillColor=none;align=center;verticalAlign=middle;whiteSpace=wrap;rounded=0;" vertex="1" parent="1">
          <mxGeometry x="440" y="610" width="250" height="120" as="geometry" />
        </mxCell>
        <mxCell id="hsaixpKsRT6CGWqEELvk-19" value="Fusion " style="rounded=1;whiteSpace=wrap;html=1;" vertex="1" parent="1">
          <mxGeometry x="80" y="810" width="120" height="190" as="geometry" />
        </mxCell>
        <mxCell id="hsaixpKsRT6CGWqEELvk-26" style="edgeStyle=orthogonalEdgeStyle;rounded=0;orthogonalLoop=1;jettySize=auto;html=1;" edge="1" parent="1" source="hsaixpKsRT6CGWqEELvk-20" target="hsaixpKsRT6CGWqEELvk-19">
          <mxGeometry relative="1" as="geometry" />
        </mxCell>
        <mxCell id="hsaixpKsRT6CGWqEELvk-20" value="URA" style="rounded=1;whiteSpace=wrap;html=1;" vertex="1" parent="1">
          <mxGeometry x="610" y="800" width="120" height="190" as="geometry" />
        </mxCell>
        <mxCell id="hsaixpKsRT6CGWqEELvk-21" value="&lt;div&gt;Credit = Complete &lt;br&gt;&lt;/div&gt;&lt;div&gt;&lt;br&gt;&lt;/div&gt;&lt;div&gt;Transactionnumber =YYY&lt;/div&gt;&lt;div&gt;OriginalTransactionnumber= 123&lt;/div&gt;" style="text;html=1;strokeColor=none;fillColor=none;align=center;verticalAlign=middle;whiteSpace=wrap;rounded=0;" vertex="1" parent="1">
          <mxGeometry x="230" y="720" width="150" height="150" as="geometry" />
        </mxCell>
        <mxCell id="hsaixpKsRT6CGWqEELvk-22" value="&#xa;invoiceNo&quot;: &quot;32101953113&lt;br&gt;&lt;span style=&quot;&quot;&gt;	&lt;/span&gt;&lt;span style=&quot;&quot;&gt;	&lt;/span&gt;&quot;invoiceId&quot;: &quot;2376294414&quot;,&amp;nbsp;&amp;nbsp;&amp;nbsp;&#xa;&#xa;" style="text;html=1;strokeColor=none;fillColor=none;align=center;verticalAlign=middle;whiteSpace=wrap;rounded=0;" vertex="1" parent="1">
          <mxGeometry x="410" y="770" width="150" height="110" as="geometry" />
        </mxCell>
        <mxCell id="hsaixpKsRT6CGWqEELvk-23" value="invoiceNo&quot;: &quot;8888888&quot;&lt;br&gt;&lt;span style=&quot;white-space: pre&quot;&gt;	&lt;/span&gt;&lt;span style=&quot;white-space: pre&quot;&gt;	&lt;/span&gt;&quot;invoiceId&quot;: &quot;89045&quot;,&amp;nbsp;&amp;nbsp;&amp;nbsp;&amp;nbsp;&amp;nbsp;&amp;nbsp;&amp;nbsp;&amp;nbsp;&amp;nbsp;&amp;nbsp;&amp;nbsp;&amp;nbsp;&amp;nbsp;&amp;nbsp;&amp;nbsp;&amp;nbsp; &lt;br&gt;AntifakeCode&lt;br&gt;QRCODE" style="text;html=1;strokeColor=none;fillColor=none;align=center;verticalAlign=middle;whiteSpace=wrap;rounded=0;" vertex="1" parent="1">
          <mxGeometry x="360" y="890" width="250" height="120" as="geometry" />
        </mxCell>
        <mxCell id="hsaixpKsRT6CGWqEELvk-24" style="edgeStyle=orthogonalEdgeStyle;rounded=0;orthogonalLoop=1;jettySize=auto;html=1;entryX=-0.017;entryY=0.295;entryDx=0;entryDy=0;entryPerimeter=0;" edge="1" parent="1" target="hsaixpKsRT6CGWqEELvk-20">
          <mxGeometry relative="1" as="geometry">
            <mxPoint x="190" y="860" as="sourcePoint" />
            <mxPoint x="570" y="830" as="targetPoint" />
          </mxGeometry>
        </mxCell>
      </root>
    </mxGraphModel>
  </diagram>
</mxfile>
